<svg xmlns="http://www.w3.org/2000/svg" viewBox="0 0 640 420" role="img" aria-labelledby="title desc">
  <title id="title">Press banca con barra, posición final</title>
  <desc id="desc">Persona tumbada en banco con la barra controlada cerca del pecho y los codos flexionados.</desc>
  <defs>
    <linearGradient id="bg" x1="0" y1="0" x2="1" y2="1">
      <stop offset="0" stop-color="#0d1422"/>
      <stop offset="1" stop-color="#182338"/>
    </linearGradient>
    <linearGradient id="skin" x1="0" y1="0" x2="1" y2="1">
      <stop offset="0" stop-color="#f8fafc"/>
      <stop offset="1" stop-color="#b8c2d4"/>
    </linearGradient>
    <filter id="glow" x="-50%" y="-50%" width="200%" height="200%">
      <feGaussianBlur stdDeviation="8" result="b"/>
      <feMerge><feMergeNode in="b"/><feMergeNode in="SourceGraphic"/></feMerge>
    </filter>
  </defs>
  <rect width="640" height="420" rx="34" fill="url(#bg)"/>
  <circle cx="518" cy="78" r="104" fill="#f97316" opacity=".07"/>
  <path d="M70 344H570" stroke="#334155" stroke-width="4" stroke-linecap="round"/>
  <rect x="155" y="278" width="330" height="34" rx="14" fill="#3b465a"/>
  <rect x="190" y="310" width="18" height="56" rx="7" fill="#253044"/>
  <rect x="432" y="310" width="18" height="56" rx="7" fill="#253044"/>
  <path d="M214 277 C253 250 338 242 394 259 C424 268 449 281 468 294" fill="none" stroke="url(#skin)" stroke-width="34" stroke-linecap="round"/>
  <circle cx="188" cy="270" r="30" fill="url(#skin)" stroke="#64748b" stroke-width="5"/>
  <path d="M171 266 Q188 248 207 264" fill="none" stroke="#64748b" stroke-width="4" stroke-linecap="round"/>
  <path d="M283 257 L253 214 L276 185" fill="none" stroke="url(#skin)" stroke-width="25" stroke-linecap="round" stroke-linejoin="round"/>
  <path d="M363 254 L394 214 L371 185" fill="none" stroke="url(#skin)" stroke-width="25" stroke-linecap="round" stroke-linejoin="round"/>
  <circle cx="276" cy="181" r="14" fill="#f8fafc" stroke="#64748b" stroke-width="4"/>
  <circle cx="371" cy="181" r="14" fill="#f8fafc" stroke="#64748b" stroke-width="4"/>
  <path d="M451 291 L514 331" stroke="url(#skin)" stroke-width="28" stroke-linecap="round"/>
  <path d="M399 274 L467 321" stroke="url(#skin)" stroke-width="28" stroke-linecap="round"/>
  <path d="M504 333 L551 333" stroke="#dbe4f0" stroke-width="18" stroke-linecap="round"/>
  <path d="M456 323 L502 323" stroke="#dbe4f0" stroke-width="18" stroke-linecap="round"/>
  <line x1="117" y1="178" x2="523" y2="178" stroke="#cbd5e1" stroke-width="10" stroke-linecap="round"/>
  <rect x="91" y="157" width="24" height="42" rx="8" fill="#64748b"/>
  <rect x="525" y="157" width="24" height="42" rx="8" fill="#64748b"/>
  <rect x="69" y="164" width="20" height="28" rx="7" fill="#475569"/>
  <rect x="551" y="164" width="20" height="28" rx="7" fill="#475569"/>
  <circle cx="276" cy="178" r="8" fill="#f97316" filter="url(#glow)"/>
  <circle cx="371" cy="178" r="8" fill="#f97316" filter="url(#glow)"/>
  <g transform="translate(42 35)">
    <rect width="164" height="54" rx="18" fill="#111827" opacity=".88" stroke="#334155"/>
    <circle cx="28" cy="27" r="12" fill="#f97316" opacity=".18"/>
    <path d="M22 27h12" stroke="#f97316" stroke-width="3" stroke-linecap="round"/>
    <text x="50" y="24" fill="#f8fafc" font-family="Arial, sans-serif" font-size="15" font-weight="700">POSICIÓN FINAL</text>
    <text x="50" y="42" fill="#94a3b8" font-family="Arial, sans-serif" font-size="12">Bajada controlada al pecho</text>
  </g>
  <path d="M276 145v-28M371 145v-28" stroke="#f97316" stroke-width="4" stroke-linecap="round" stroke-dasharray="7 8" opacity=".8"/>
</svg>
